<svg width="77" height="60" viewBox="0 0 77 60" fill="none" xmlns="http://www.w3.org/2000/svg">
<g clip-path="url(#clip0_1589_1305)">
<path d="M26.3379 60C18.4537 60 12.5549 57.321 8.64144 51.9695C4.72798 46.6115 2.76807 39.4655 2.76807 30.5186C2.76807 21.5717 4.72798 14.4193 8.64144 9.06141C12.5549 3.70983 18.4537 1.03086 26.3379 1.03086C34.2221 1.03086 40.1209 3.70983 44.0344 9.06141C47.9478 14.4193 49.9077 21.5654 49.9077 30.5123C49.9077 39.4591 47.9542 46.6052 44.0344 51.9631C40.1209 57.321 34.2157 59.9936 26.3379 59.9936V60ZM17.9383 16.7738C16.1438 20.2545 15.2466 24.8489 15.2466 30.5568C15.2466 36.2647 16.1438 40.8654 17.9383 44.3398C19.7327 47.8206 22.5326 49.5577 26.3379 49.5577C30.1432 49.5577 32.9431 47.8206 34.7375 44.3398C36.532 40.8591 37.4292 36.2647 37.4292 30.5568C37.4292 24.8489 36.532 20.2545 34.7375 16.7738C32.9431 13.293 30.1432 11.5558 26.3379 11.5558C22.5326 11.5558 19.7327 13.293 17.9383 16.7738Z" fill="url(#paint0_linear_1589_1305)"/>
<path d="M53.7449 2.33535H76.8248V59.3446H64.588V13.1849H53.7385V2.33535H53.7449Z" fill="url(#paint1_linear_1589_1305)"/>
<path d="M23.5698 58.9691C15.6857 58.9691 9.78683 56.2902 5.87337 50.9386C1.95991 45.5807 0 38.4283 0 29.4878C0 20.5472 1.95991 13.3885 5.87337 8.03054C9.78683 2.67897 15.6857 0 23.5698 0C31.454 0 37.3528 2.67897 41.2663 8.03054C45.1798 13.3885 47.1397 20.5345 47.1397 29.4814C47.1397 38.4283 45.1861 45.5743 41.2663 50.9322C37.3528 56.2902 31.4477 58.9628 23.5698 58.9628V58.9691ZM15.1702 15.7429C13.3758 19.2237 12.4785 23.818 12.4785 29.5259C12.4785 35.2339 13.3758 39.8346 15.1702 43.3089C16.9647 46.7897 19.7646 48.5269 23.5698 48.5269C27.3751 48.5269 30.175 46.7897 31.9695 43.3089C33.7639 39.8282 34.6612 35.2339 34.6612 29.5259C34.6612 23.818 33.7639 19.2237 31.9695 15.7429C30.175 12.2622 27.3751 10.525 23.5698 10.525C19.7646 10.525 16.9647 12.2622 15.1702 15.7429Z" fill="#017CD5"/>
<path d="M50.9768 1.30449H74.0567V58.3137H61.82V12.154H50.9705V1.30449H50.9768Z" fill="#0175CA"/>
</g>
<defs>
<linearGradient id="paint0_linear_1589_1305" x1="2.76807" y1="30.5122" x2="49.9077" y2="30.5122" gradientUnits="userSpaceOnUse">
<stop stop-color="#003575"/>
<stop offset="1" stop-color="#007DD4"/>
</linearGradient>
<linearGradient id="paint1_linear_1589_1305" x1="53.7449" y1="30.8431" x2="76.8248" y2="30.8431" gradientUnits="userSpaceOnUse">
<stop stop-color="#003575"/>
<stop offset="1" stop-color="#007DD4"/>
</linearGradient>
<clipPath id="clip0_1589_1305">
<rect width="76.8247" height="60" fill="white"/>
</clipPath>
</defs>
</svg>
