<svg width="97" height="60" viewBox="0 0 97 60" fill="none" xmlns="http://www.w3.org/2000/svg">
<g clip-path="url(#clip0_1587_1270)">
<path d="M26.3379 60C18.4537 60 12.5549 57.321 8.64144 51.9695C4.72798 46.6115 2.76807 39.4655 2.76807 30.5186C2.76807 21.5717 4.72798 14.4193 8.64144 9.06141C12.5549 3.70983 18.4537 1.03086 26.3379 1.03086C34.2221 1.03086 40.1209 3.70983 44.0344 9.06141C47.9478 14.4193 49.9077 21.5654 49.9077 30.5123C49.9077 39.4591 47.9542 46.6052 44.0344 51.9631C40.1209 57.321 34.2157 59.9936 26.3379 59.9936V60ZM17.9383 16.7738C16.1438 20.2545 15.2466 24.8489 15.2466 30.5568C15.2466 36.2647 16.1438 40.8654 17.9383 44.3398C19.7327 47.8206 22.5326 49.5577 26.3379 49.5577C30.1432 49.5577 32.9431 47.8206 34.7375 44.3398C36.532 40.8591 37.4292 36.2647 37.4292 30.5568C37.4292 24.8489 36.532 20.2545 34.7375 16.7738C32.9431 13.293 30.1432 11.5558 26.3379 11.5558C22.5326 11.5558 19.7327 13.293 17.9383 16.7738Z" fill="url(#paint0_linear_1587_1270)"/>
<path d="M79.8855 24.5562C81.3236 22.5199 82.0491 20.5472 82.0491 18.6446C82.0491 16.742 81.4255 15.1511 80.1719 13.8721C78.9183 12.5931 77.3147 11.9567 75.3612 11.9567C71.7723 11.9567 68.3742 14.5148 65.1671 19.6246L54.973 13.5921C57.6329 9.4623 60.56 6.33153 63.7417 4.21254C66.9234 2.09354 70.9705 1.03086 75.8957 1.03086C80.8209 1.03086 85.1416 2.59625 88.8642 5.72065C92.5868 8.84505 94.4512 13.1021 94.4512 18.4855C94.4512 21.419 93.7067 24.238 92.2113 26.9233C90.7159 29.615 87.9542 33.0512 83.9326 37.2447L73.6558 47.9287H96.1693V59.3509H55.9593V49.8886L72.6759 32.7585C76.0484 29.335 78.4538 26.5988 79.8919 24.5625L79.8855 24.5562Z" fill="url(#paint1_linear_1587_1270)"/>
<path d="M23.5698 58.9691C15.6857 58.9691 9.78683 56.2902 5.87337 50.9386C1.95991 45.5807 0 38.4283 0 29.4878C0 20.5472 1.95991 13.3885 5.87337 8.03054C9.78683 2.67897 15.6857 0 23.5698 0C31.454 0 37.3528 2.67897 41.2663 8.03054C45.1798 13.3885 47.1397 20.5345 47.1397 29.4814C47.1397 38.4283 45.1861 45.5743 41.2663 50.9322C37.3528 56.2902 31.4477 58.9628 23.5698 58.9628V58.9691ZM15.1702 15.7429C13.3758 19.2237 12.4785 23.818 12.4785 29.5259C12.4785 35.2339 13.3758 39.8346 15.1702 43.3089C16.9647 46.7897 19.7646 48.5269 23.5698 48.5269C27.3751 48.5269 30.175 46.7897 31.9695 43.3089C33.7639 39.8282 34.6612 35.2339 34.6612 29.5259C34.6612 23.818 33.7639 19.2237 31.9695 15.7429C30.175 12.2622 27.3751 10.525 23.5698 10.525C19.7646 10.525 16.9647 12.2622 15.1702 15.7429Z" fill="url(#paint2_linear_1587_1270)"/>
<path d="M77.1175 23.5317C78.5556 21.4954 79.281 19.5227 79.281 17.6201C79.281 15.7175 78.6574 14.1266 77.4038 12.8476C76.1502 11.5686 74.5467 10.9322 72.5931 10.9322C69.0042 10.9322 65.6062 13.4903 62.399 18.6001L52.205 12.5676C54.8648 8.4378 57.792 5.30703 60.9736 3.18804C64.1553 1.06904 68.2024 0.00636339 73.1276 0.00636339C78.0529 0.00636339 82.3736 1.57175 86.0961 4.69615C89.8187 7.82055 91.6832 12.0776 91.6832 17.461C91.6832 20.3945 90.9386 23.2135 89.4433 25.8988C87.9479 28.5905 85.1862 32.0267 81.1646 36.2202L70.8877 46.9042H93.4013V58.3264H53.1913V48.8641L69.9078 31.734C73.2804 28.3105 75.6857 25.5743 77.1238 23.538L77.1175 23.5317Z" fill="#017ED5"/>
</g>
<defs>
<linearGradient id="paint0_linear_1587_1270" x1="2.76807" y1="30.5122" x2="49.9077" y2="30.5122" gradientUnits="userSpaceOnUse">
<stop stop-color="#003575"/>
<stop offset="1" stop-color="#007DD4"/>
</linearGradient>
<linearGradient id="paint1_linear_1587_1270" x1="54.9667" y1="30.1877" x2="96.1566" y2="30.1877" gradientUnits="userSpaceOnUse">
<stop stop-color="#003575"/>
<stop offset="1" stop-color="#007DD4"/>
</linearGradient>
<linearGradient id="paint2_linear_1587_1270" x1="23.5698" y1="0" x2="23.5698" y2="58.9691" gradientUnits="userSpaceOnUse">
<stop stop-color="#017ED5"/>
<stop offset="0.76" stop-color="#007DD4"/>
</linearGradient>
<clipPath id="clip0_1587_1270">
<rect width="96.1565" height="60" fill="white"/>
</clipPath>
</defs>
</svg>
