<svg width="70" height="70" viewBox="0 0 70 70" fill="none" xmlns="http://www.w3.org/2000/svg">
<g clip-path="url(#clip0_1854_194)">
<path fill-rule="evenodd" clip-rule="evenodd" d="M70 35C70 15.67 54.33 0 35 0C15.67 0 0 15.67 0 35C0 54.33 15.67 70 35 70C54.33 70 70 54.33 70 35Z" fill="#3300CC"/>
<path fill-rule="evenodd" clip-rule="evenodd" d="M24.8701 29.28C24.3001 30.2 23.0901 30.49 22.1601 29.91C21.2401 29.34 20.9501 28.13 21.5301 27.2C22.1001 26.28 23.3101 25.99 24.2401 26.57C25.1601 27.14 25.4501 28.35 24.8701 29.28ZM17.3501 24.77C16.9801 25.37 16.2001 25.55 15.6001 25.18C15.0001 24.81 14.8201 24.03 15.1901 23.43C15.5601 22.83 16.3401 22.65 16.9401 23.02C17.5401 23.39 17.7201 24.17 17.3501 24.77ZM25.0501 41.04C25.5601 42 25.2001 43.19 24.2401 43.7C23.2801 44.21 22.0901 43.85 21.5801 42.89C21.0701 41.93 21.4301 40.74 22.3901 40.23C23.3501 39.72 24.5401 40.08 25.0501 41.04ZM17.3801 45.29C17.7101 45.91 17.4801 46.68 16.8601 47.01C16.2401 47.34 15.4701 47.11 15.1401 46.49C14.8101 45.87 15.0401 45.1 15.6601 44.77C16.2801 44.44 17.0501 44.67 17.3801 45.29ZM35.0601 46.77C36.1401 46.83 36.9701 47.76 36.9101 48.84C36.8501 49.92 35.9201 50.75 34.8401 50.69C33.7601 50.63 32.9301 49.7 32.9901 48.62C33.0501 47.54 33.9801 46.71 35.0601 46.77ZM34.7001 55.53C35.4001 55.57 35.9401 56.17 35.9001 56.87C35.8601 57.57 35.2601 58.11 34.5601 58.07C33.8601 58.03 33.3201 57.43 33.3601 56.73C33.4001 56.03 34.0001 55.49 34.7001 55.53ZM45.2601 41.03C45.8601 40.13 47.0801 39.88 47.9801 40.48C48.8801 41.08 49.1301 42.3 48.5301 43.2C47.9301 44.1 46.7101 44.35 45.8101 43.75C44.9101 43.15 44.6601 41.93 45.2601 41.03ZM52.6401 45.77C53.0301 45.19 53.8201 45.03 54.4001 45.41C54.9801 45.8 55.1401 46.59 54.7601 47.17C54.3701 47.75 53.5801 47.91 53.0001 47.53C52.4201 47.14 52.2601 46.35 52.6401 45.77ZM45.1601 28.8C44.6301 27.85 44.9801 26.66 45.9201 26.13C46.8701 25.6 48.0601 25.94 48.5901 26.89C49.1201 27.84 48.7701 29.03 47.8301 29.56C46.8801 30.09 45.6901 29.74 45.1601 28.79V28.8ZM52.7601 24.43C52.4201 23.82 52.6401 23.04 53.2501 22.7C53.8601 22.36 54.6401 22.58 54.9801 23.19C55.3201 23.8 55.1001 24.58 54.4901 24.92C53.8801 25.26 53.1001 25.04 52.7601 24.43ZM30.0501 36.85C29.1001 38.44 27.0501 38.96 25.4601 38.02C23.8701 37.07 23.3401 35.02 24.2901 33.43C25.2401 31.84 27.2901 31.31 28.8801 32.26C30.4701 33.21 31.0001 35.26 30.0501 36.86V36.85ZM18.5301 35.75C18.1301 36.43 17.2601 36.65 16.5801 36.25C15.9001 35.85 15.6801 34.98 16.0801 34.3C16.4801 33.62 17.3501 33.4 18.0301 33.8C18.7101 34.2 18.9301 35.07 18.5301 35.75ZM12.0201 35.4C11.7501 35.85 11.1701 36 10.7201 35.73C10.2701 35.46 10.1201 34.88 10.3901 34.43C10.6601 33.98 11.2401 33.83 11.6901 34.1C12.1401 34.37 12.2901 34.95 12.0201 35.4ZM34.2801 40.19C35.1601 41.82 34.5501 43.85 32.9201 44.73C31.2901 45.61 29.2601 45 28.3801 43.37C27.5001 41.74 28.1101 39.71 29.7401 38.83C31.3701 37.95 33.4001 38.56 34.2801 40.19ZM27.4201 49.51C27.7901 50.2 27.5401 51.06 26.8401 51.44C26.1501 51.81 25.2901 51.56 24.9101 50.86C24.5401 50.17 24.8001 49.31 25.4901 48.93C26.1801 48.56 27.0401 48.81 27.4201 49.51ZM23.7701 54.91C24.0201 55.37 23.8501 55.95 23.3801 56.2C22.9201 56.45 22.3401 56.28 22.0901 55.81C21.8401 55.35 22.0101 54.77 22.4801 54.52C22.9401 54.27 23.5201 54.44 23.7701 54.91ZM39.3601 38.23C41.2101 38.29 42.6601 39.85 42.5901 41.7C42.5201 43.55 40.9701 45 39.1201 44.93C37.2701 44.87 35.8201 43.31 35.8901 41.46C35.9501 39.61 37.5101 38.16 39.3601 38.23ZM43.9401 48.86C44.7301 48.89 45.3401 49.55 45.3101 50.33C45.2801 51.12 44.6201 51.73 43.8401 51.7C43.0501 51.67 42.4401 51.01 42.4701 50.23C42.5001 49.44 43.1601 48.83 43.9401 48.86ZM46.7601 54.74C47.2901 54.76 47.7001 55.2 47.6801 55.72C47.6601 56.25 47.2201 56.66 46.7001 56.64C46.1701 56.62 45.7601 56.18 45.7801 55.66C45.8001 55.13 46.2401 54.72 46.7601 54.74ZM40.0001 32.8C40.9801 31.23 43.0501 30.75 44.6201 31.73C46.1901 32.71 46.6701 34.78 45.6901 36.35C44.7101 37.92 42.6401 38.4 41.0701 37.42C39.5001 36.44 39.0201 34.37 40.0001 32.8ZM51.4901 34.15C51.9101 33.48 52.7801 33.28 53.4501 33.7C54.1201 34.12 54.3201 34.99 53.9001 35.66C53.4801 36.33 52.6101 36.53 51.9401 36.11C51.2701 35.69 51.0701 34.82 51.4901 34.15ZM57.9901 34.65C58.2701 34.2 58.8601 34.07 59.3001 34.35C59.7501 34.63 59.8801 35.21 59.6001 35.66C59.3201 36.11 58.7301 36.24 58.2901 35.96C57.8401 35.68 57.7101 35.1 57.9901 34.65ZM35.8001 29.36C34.8701 27.76 35.4201 25.71 37.0301 24.78C38.6301 23.85 40.6801 24.4 41.6101 26C42.5401 27.6 41.9901 29.65 40.3801 30.58C38.7801 31.51 36.7301 30.96 35.8001 29.35V29.36ZM42.3901 19.84C42.0001 19.16 42.2301 18.29 42.9101 17.9C43.5901 17.51 44.4601 17.74 44.8501 18.42C45.2401 19.1 45.0101 19.97 44.3301 20.36C43.6501 20.75 42.7801 20.52 42.3901 19.84ZM45.8801 14.33C45.6201 13.87 45.7701 13.29 46.2301 13.03C46.6901 12.77 47.2701 12.92 47.5301 13.38C47.7901 13.84 47.6401 14.42 47.1801 14.68C46.7201 14.94 46.1401 14.79 45.8801 14.33ZM34.5901 23.23C33.5001 23.23 32.6301 22.35 32.6301 21.27C32.6301 20.19 33.5101 19.3 34.5901 19.3C35.6701 19.3 36.5601 20.18 36.5601 21.27C36.5601 22.36 35.6801 23.23 34.5901 23.23ZM34.4601 14.46C33.7601 14.46 33.1901 13.89 33.1901 13.19C33.1901 12.49 33.7601 11.92 34.4601 11.92C35.1601 11.92 35.7301 12.49 35.7301 13.19C35.7301 13.89 35.1601 14.46 34.4601 14.46ZM30.7601 31.47C28.9101 31.47 27.4101 29.97 27.4101 28.12C27.4101 26.27 28.9101 24.77 30.7601 24.77C32.6101 24.77 34.1101 26.27 34.1101 28.12C34.1101 29.97 32.6101 31.47 30.7601 31.47ZM25.8201 21.01C25.0301 21.01 24.4001 20.37 24.4001 19.59C24.4001 18.81 25.0401 18.17 25.8201 18.17C26.6001 18.17 27.2401 18.81 27.2401 19.59C27.2401 20.37 26.6001 21.01 25.8201 21.01ZM22.8001 15.23C22.2701 15.23 21.8501 14.8 21.8501 14.28C21.8501 13.76 22.2801 13.33 22.8001 13.33C23.3201 13.33 23.7501 13.76 23.7501 14.28C23.7501 14.8 23.3201 15.23 22.8001 15.23Z" fill="white"/>
</g>
<defs>
<clipPath id="clip0_1854_194">
<rect width="70" height="70" fill="white"/>
</clipPath>
</defs>
</svg>
