<svg width="70" height="70" viewBox="0 0 70 70" fill="none" xmlns="http://www.w3.org/2000/svg">
<g clip-path="url(#clip0_1854_23)">
<path d="M69.9654 33.4839C70.8159 52.8143 55.8847 69.1125 36.5119 69.9653C17.2336 70.8181 0.884911 55.8465 0.0343991 36.5161C-0.816113 17.1857 14.2096 0.88751 33.4879 0.0346976C52.7662 -0.818115 69.1149 14.1535 69.9654 33.4839Z" fill="#F39322"/>
<path fill-rule="evenodd" clip-rule="evenodd" d="M48.4194 25.8086C47.7579 21.1655 43.6943 19.7442 38.4967 19.5546L38.2132 13.0164L34.2442 13.2059L34.5277 19.5546C33.4882 19.5546 32.4486 19.6494 31.4091 19.7442L31.1256 13.3954L27.1566 13.585L27.4401 20.1232C26.5896 20.2179 25.739 20.2179 24.8885 20.3127L19.502 20.4075L19.691 24.6715C19.691 24.6715 22.6205 24.482 22.526 24.5768C24.1325 24.482 24.6995 25.4296 24.8885 26.1876L25.172 33.5787C25.2665 33.5787 25.4555 33.5787 25.55 33.5787H25.4555C25.361 33.5787 25.2665 33.5787 25.172 33.5787L25.6445 44.0019C25.55 44.4757 25.361 45.3285 24.227 45.4233C24.3215 45.4233 21.392 45.518 21.392 45.518L20.825 50.2559L25.928 50.0664C26.4951 50.0664 27.0621 50.0664 27.6291 49.9716C28.0071 49.9716 28.3851 49.9716 28.7631 49.9716L29.0466 56.5098L33.0156 56.3203L32.7321 49.7821C33.7717 49.7821 34.9057 49.6873 35.8507 49.6873L36.1342 56.1308L40.1032 55.9413L39.8197 49.4031C46.4348 48.7398 51.0654 46.8446 51.3489 40.5907C51.6324 35.5686 49.1754 33.3892 45.3008 32.6311C47.5689 31.3993 48.8919 29.2199 48.4194 25.8086ZM43.5053 40.1169C43.6943 44.6652 36.6067 44.8547 33.3937 44.9495C33.1101 44.9495 32.8266 44.9495 32.6376 44.9495L32.2596 36.2319C32.5431 36.2319 32.8266 36.2319 33.2046 36.1371C36.5122 35.9476 43.3163 35.4738 43.5053 40.1169ZM32.7321 32.2521C35.4727 32.1573 41.3318 31.9678 41.1428 27.8933C40.9538 23.724 35.2837 24.103 32.5431 24.2925C32.2596 24.2925 31.9761 24.2925 31.6926 24.3872L32.0706 32.2521C32.2596 32.2521 32.4486 32.2521 32.7321 32.2521Z" fill="white"/>
</g>
<defs>
<clipPath id="clip0_1854_23">
<rect width="70" height="70" fill="white"/>
</clipPath>
</defs>
</svg>
