<svg width="70" height="70" viewBox="0 0 70 70" fill="none" xmlns="http://www.w3.org/2000/svg">
<g clip-path="url(#clip0_1854_8)">
<path d="M33.132 1.35242H36.7052C40.3749 1.64222 44.0446 2.31843 47.5211 3.67086C56.0194 7.05192 62.9725 13.9106 66.4491 22.4116C71.1811 33.714 69.1531 47.4315 61.2342 56.8018C55.9228 63.3708 48.1006 67.8144 39.7954 68.8771C31.9732 70.0363 23.7646 68.2974 17.0046 64.047C11.7898 60.7625 7.63723 56.2222 4.83667 50.8125C1.26353 44.0504 0.201251 35.9359 1.74639 28.4009C3.3881 20.0932 8.31323 12.5582 15.2664 7.63153C20.4812 3.86406 26.7583 1.73882 33.132 1.35242Z" fill="white"/>
<path d="M33.1322 0H36.8019C40.5681 0.289805 44.431 0.966018 47.9076 2.41504C56.6955 5.89271 63.8418 12.9446 67.4149 21.7354C72.2435 33.3276 70.2155 47.5281 62.1035 57.1883C56.599 63.9504 48.5835 68.4907 39.9887 69.6499C31.8767 70.8091 23.475 69.0703 16.5219 64.7232C11.2105 61.3421 6.86479 56.7052 3.96766 51.0057C0.201381 43.9538 -0.860902 35.6461 0.684237 27.9179C2.42252 19.3204 7.54079 11.4956 14.6871 6.47232C20.095 2.60825 26.5653 0.386407 33.1322 0ZM30.911 1.54563C20.2882 2.80145 10.5345 9.46697 5.41623 18.9339C2.03623 25.3097 0.684237 32.5548 1.64995 39.7033C2.8088 48.2043 7.44422 56.2222 14.2042 61.4387C25.5996 70.4227 41.4373 71.0023 53.5087 62.8878C61.0412 57.8645 66.4492 49.6533 67.9944 40.766C68.8635 35.4529 68.5738 30.0432 66.9321 24.9233C64.5178 17.4849 59.6892 11.0126 53.1224 6.76213C46.6521 2.51165 38.7333 0.676212 30.911 1.54563Z" fill="#232F5E"/>
<path d="M31.7805 15.3597C37.8645 14.2971 44.4313 16.3257 48.777 20.6728C52.6399 24.3436 54.9576 29.6567 54.861 34.9698C54.9576 40.2829 52.6399 45.596 48.777 49.1703C44.5279 53.3242 38.3473 55.3528 32.553 54.58C26.9519 53.9038 21.9302 50.8125 18.7434 46.1756C15.1702 41.3456 14.2045 34.7766 16.0394 29.0771C18.1639 22.0252 24.5376 16.5189 31.7805 15.3597ZM33.0359 16.6155C33.0359 18.3543 33.0359 20.0932 33.0359 21.832C33.905 21.832 34.7742 21.832 35.6433 21.832C35.6433 20.0932 35.6433 18.2577 35.6433 16.5189C34.7742 16.5189 33.905 16.5189 33.0359 16.6155ZM39.2165 21.9286C41.5342 22.2184 43.9485 22.6048 45.7833 24.1504C48.5839 26.6621 48.1976 31.8786 44.8176 33.714C46.8456 34.197 48.8736 35.5494 49.3564 37.6747C50.0324 40.4761 49.453 43.8572 47.2319 45.7892C45.0107 47.6247 42.017 47.9145 39.2165 48.1077C39.2165 49.7499 39.2165 51.3921 39.2165 53.0344C45.0107 51.5853 50.0324 47.2383 52.157 41.6354C54.185 36.4189 53.7021 30.333 50.805 25.5995C48.2942 21.349 43.9485 18.1611 39.1199 16.9053C39.2165 18.6441 39.2165 20.2864 39.2165 21.9286ZM21.9302 21.832C24.4411 21.9286 26.9519 21.9286 29.4628 21.9286C29.4628 20.383 29.4628 18.8373 29.4628 17.2917C26.6622 18.2577 24.1514 19.9 21.9302 21.832ZM21.5439 22.0252C20.8679 22.8946 19.6125 24.4402 18.9365 25.7927C15.9428 30.816 15.6531 37.2883 18.0674 42.6014C20.1919 47.3349 24.4411 51.1023 29.3662 52.648C29.3662 51.1023 29.3662 49.5567 29.3662 48.0111C26.8554 48.0111 24.3445 48.1077 21.7371 47.9145C21.8336 46.4654 22.0268 45.113 22.6062 43.7606C23.8616 43.7606 25.1171 43.9538 26.3725 43.5674C27.0485 42.9878 26.8554 42.0218 26.9519 41.249C26.9519 36.6121 26.9519 32.0718 26.9519 27.4349C26.9519 26.6621 26.5656 25.8893 25.7931 25.7927C24.5376 25.5029 23.1856 25.5995 21.9302 25.5995C21.8336 24.5368 21.7371 23.4742 21.7371 22.5082C21.7371 22.315 21.6405 22.1218 21.5439 22.0252ZM33.1325 25.9859V32.748C35.3536 32.748 37.8645 32.9412 39.8925 31.6854C41.5342 30.6228 41.4376 27.9179 39.6993 26.9519C37.6713 25.6961 35.257 25.9859 33.1325 25.9859ZM33.1325 36.4189V43.9538C35.933 43.7606 39.0233 44.2436 41.5342 42.5048C43.2725 41.3456 43.0793 38.4475 41.2445 37.4815C38.7336 36.0325 35.8365 36.4189 33.1325 36.4189ZM33.0359 48.2043C33.0359 49.9431 33.0359 51.6819 33.0359 53.4208C33.905 53.5174 34.8708 53.5174 35.7399 53.5174C35.7399 51.7785 35.7399 49.9431 35.7399 48.2043H33.0359Z" fill="#232F5E"/>
<path d="M31.1042 3.381C37.1881 2.70479 43.5618 3.67081 49.0664 6.47226C63.9384 13.814 70.6018 31.3955 64.4212 46.7552C59.9789 58.3474 48.1007 66.6552 35.643 66.6552C28.3036 66.945 20.9642 64.4333 15.2665 59.893C9.18249 55.2562 4.93336 48.1076 3.67793 40.4761C2.32593 32.9411 3.87107 24.9232 7.92706 18.3543C12.7556 10.1431 21.6402 4.44362 31.1042 3.381ZM30.0419 13.6208C18.2602 16.3256 10.9208 28.1111 13.6248 39.7999C14.7836 44.8232 17.6808 49.3635 21.9299 52.4547C26.4687 55.8358 32.263 57.2848 37.8641 56.512C44.7207 55.6426 51.0944 51.2955 54.2812 45.113C56.6955 40.7659 57.3715 35.5494 56.5024 30.6227C55.3435 24.73 51.6738 19.3203 46.5555 16.1324C41.6304 13.331 35.643 12.365 30.0419 13.6208Z" fill="#EBA80C"/>
</g>
<defs>
<clipPath id="clip0_1854_8">
<rect width="70" height="70" fill="white"/>
</clipPath>
</defs>
</svg>
