<svg width="70" height="70" viewBox="0 0 70 70" fill="none" xmlns="http://www.w3.org/2000/svg">
<g clip-path="url(#clip0_1854_14)">
<path d="M35 70C54.33 70 70 54.33 70 35C70 15.67 54.33 0 35 0C15.67 0 0 15.67 0 35C0 54.33 15.67 70 35 70Z" fill="#EDF0F4"/>
<path d="M34.9052 7.7038L41.6396 14.5516L24.6613 31.5761L17.9269 24.8234L34.9052 7.7038Z" fill="#F0BA10" stroke="#F0BA10"/>
<path d="M45.0542 17.8805L51.7887 24.7283L24.6613 52.0245L17.9269 45.2718L45.0542 17.8805Z" fill="#F0BA10" stroke="#F0BA10"/>
<path d="M14.5121 28.1522L21.2465 35.0951L14.5121 41.8478L7.77771 35L14.5121 28.1522Z" fill="#F0BA10" stroke="#F0BA10"/>
<path d="M55.2034 28.1522L61.9378 35.0951L34.9053 62.2011L28.1709 55.4484L55.2034 28.1522Z" fill="#F0BA10" stroke="#F0BA10"/>
</g>
<defs>
<clipPath id="clip0_1854_14">
<rect width="70" height="70" fill="white"/>
</clipPath>
</defs>
</svg>
