<svg width="70" height="70" viewBox="0 0 70 70" fill="none" xmlns="http://www.w3.org/2000/svg">
<g clip-path="url(#clip0_1854_51)">
<path d="M32.8705 -0.333374H36.4872C40.3106 -0.126396 44.0307 0.701516 47.6475 2.15036C56.4311 5.5655 63.4579 12.6028 67.0747 21.3993C71.9314 32.9901 69.8647 47.1681 61.7012 56.8961C49.5075 71.7985 27.497 73.9717 12.5133 61.76C-2.47045 49.5483 -4.64051 27.4017 7.55313 12.4993C9.51652 10.119 11.7899 7.94575 14.3733 6.08295C19.8501 2.25385 26.2569 -0.0229069 32.8705 -0.333374Z" fill="#679173"/>
<path d="M19.2305 34.5424L35.3509 25.9529L51.2646 34.5424C51.1613 34.5424 51.1613 34.6459 51.0579 34.6459L44.4444 38.268C41.4477 39.9239 38.451 41.4762 35.4542 43.132C35.3509 43.2355 35.2475 43.2355 35.1442 43.132L19.3338 34.7494L19.2305 34.5424Z" fill="white"/>
<path d="M18.7139 37.2332L18.8172 37.3367L23.8807 40.0274L28.7375 42.6146C30.9075 43.753 32.9742 44.8914 35.1443 46.0298C35.2476 46.1333 35.351 46.1333 35.4543 46.0298C39.0711 44.0635 42.7911 42.0972 46.4079 40.1309L51.678 37.2332C51.678 37.2332 51.7814 37.2332 51.7814 37.1297C46.3046 45.3054 40.7244 53.5845 35.2476 61.7601C29.7708 53.5845 24.1907 45.4089 18.7139 37.2332Z" fill="white"/>
<path d="M18.6104 31.8518L35.2474 7.42834L51.8845 31.9552L51.6779 31.8518L35.4541 23.1587C35.1441 23.0552 35.2474 23.0552 34.9374 23.1587L26.9806 27.4017L20.8837 30.6099L18.7137 31.7483L18.6104 31.8518Z" fill="white"/>
</g>
<defs>
<clipPath id="clip0_1854_51">
<rect width="70" height="70" fill="white"/>
</clipPath>
</defs>
</svg>
