<svg width="70" height="70" viewBox="0 0 70 70" fill="none" xmlns="http://www.w3.org/2000/svg">
<g clip-path="url(#clip0_1854_58)">
<path d="M34.9331 70.4C54.2631 70.4 69.9331 54.73 69.9331 35.4C69.9331 16.07 54.2631 0.399994 34.9331 0.399994C15.6031 0.399994 -0.0668945 16.07 -0.0668945 35.4C-0.0668945 54.73 15.6031 70.4 34.9331 70.4Z" fill="#EDF0F4"/>
<path d="M34.8358 14.4L34.5449 15.3722V42.7889L34.8358 43.0806L47.5366 35.5944L34.8358 14.4Z" fill="#343434"/>
<path d="M34.8359 14.4L22.0381 35.4972L34.8359 43.0806V29.7611V14.4Z" fill="#8C8C8C"/>
<path d="M34.8365 45.5111L34.6426 45.7055V55.525L34.8365 56.0111L47.5373 38.025L34.8365 45.5111Z" fill="#3D3D3B"/>
<path d="M34.8366 55.9139V45.5111L22.1357 38.025L34.8366 55.9139Z" fill="#8C8C8C"/>
<path d="M34.8364 43.0806L47.5373 35.5944L34.8364 29.7611V43.0806Z" fill="#141414"/>
<path d="M22.0381 35.4972L34.8359 43.0806V29.7611L22.0381 35.4972Z" fill="#393939"/>
</g>
<defs>
<clipPath id="clip0_1854_58">
<rect width="70" height="70" fill="white"/>
</clipPath>
</defs>
</svg>
