<svg width="246" height="69" viewBox="0 0 246 69" fill="none" xmlns="http://www.w3.org/2000/svg">
<g clip-path="url(#clip0_1586_1164)">
<path fill-rule="evenodd" clip-rule="evenodd" d="M9.21422 36.7974L40.1113 6.19131C41.5228 4.7895 41.5228 2.45316 40.1113 1.05135C38.6997 -0.350451 36.3471 -0.350451 34.9356 1.05135L1.05865 34.6168C-0.352885 36.0186 -0.352885 38.355 1.05865 39.7568C1.13707 39.8347 1.13707 39.8347 1.21549 39.9125L29.2895 67.7929C30.701 69.1947 32.8967 69.1947 34.3867 67.8708C34.3867 67.8708 34.3867 67.8708 34.4651 67.8708C34.4651 67.8708 34.5435 67.8708 34.5435 67.7929L63.0096 39.5231C64.4211 38.1213 64.4211 35.785 63.0096 34.3832C62.9311 34.3053 62.9311 34.3053 62.8527 34.2274L42.2286 13.9012C40.817 12.4994 38.4645 12.4994 37.0529 13.9012C35.6414 15.303 35.6414 17.6394 37.0529 19.0412L54.7756 36.6416C55.0108 36.8753 55.0108 37.1868 54.7756 37.4204L32.2694 59.7714C32.0341 60.0051 31.7204 60.0051 31.4852 59.7714L9.21422 37.6541C8.97896 37.4204 8.97896 37.031 9.21422 36.7974Z" fill="white"/>
<path fill-rule="evenodd" clip-rule="evenodd" d="M21.9965 42.9498C24.8196 42.9498 27.0937 40.6913 27.0937 37.8877C27.0937 35.0841 24.8196 32.8256 21.9965 32.8256C19.1734 32.8256 16.8993 35.0841 16.8993 37.8877C16.8993 40.6913 19.1734 42.9498 21.9965 42.9498Z" fill="#00AFEF"/>
<path fill-rule="evenodd" clip-rule="evenodd" d="M41.9933 42.9498C44.8164 42.9498 47.0906 40.6913 47.0906 37.8877C47.0906 35.0841 44.8164 32.8256 41.9933 32.8256C39.1703 32.8256 36.8961 35.0841 36.8961 37.8877C36.8961 40.6913 39.1703 42.9498 41.9933 42.9498Z" fill="#00AFEF"/>
<path fill-rule="evenodd" clip-rule="evenodd" d="M73.2824 50.8933H88.8093C95.9455 50.8933 98.2196 47.1552 98.2196 43.417C98.2196 40.224 96.6512 37.654 93.044 36.5637C95.7102 35.4735 97.0433 33.4486 97.0433 30.4893C97.0433 25.9723 93.7497 23.5581 88.1036 23.5581H73.204V50.8933H73.2824ZM80.7322 29.5547H85.9863C88.3388 29.5547 89.4367 30.4114 89.4367 32.1247C89.4367 33.838 88.182 34.6947 85.9863 34.6947H80.7322V29.5547ZM80.7322 39.5231H87.0057C89.6719 39.5231 90.613 40.847 90.613 42.2488C90.613 43.8064 89.5151 44.9746 87.0057 44.9746H80.7322V39.5231Z" fill="white"/>
<path d="M109.904 23.5581H102.454V50.8933H109.904V23.5581Z" fill="white"/>
<path fill-rule="evenodd" clip-rule="evenodd" d="M137.037 23.5581H113.668V29.7884H121.588V50.8933H129.038V29.7884H137.037V23.5581Z" fill="white"/>
<path fill-rule="evenodd" clip-rule="evenodd" d="M152.015 23.1687C145.585 23.1687 140.566 25.9723 140.566 32.0468C140.566 33.6044 140.958 34.8504 141.585 35.785C142.213 36.7195 143.389 37.5762 144.487 38.1992C145.585 38.8222 147.388 39.4453 148.721 39.7568L151.309 40.4577C153.74 41.0807 155.23 41.4701 155.779 41.7816C156.406 42.0931 156.642 42.6383 156.642 43.3392C156.642 44.5073 155.387 45.1304 153.819 45.1304C149.976 45.1304 146.29 44.1179 142.761 42.0931L139.468 47.6225C143.31 50.1924 147.78 51.4385 152.956 51.4385C160.17 51.4385 164.484 48.1676 164.484 42.4825C164.484 40.8471 164.091 39.5231 163.464 38.5886C162.837 37.5762 161.582 36.6416 160.484 36.0965C159.386 35.4735 157.504 34.7726 156.093 34.3832C155.387 34.1495 154.446 33.9159 153.426 33.6044C151.309 33.0593 150.054 32.6699 149.506 32.4362C148.957 32.1247 148.643 31.7353 148.643 31.3459C148.643 30.0999 149.741 29.5547 151.231 29.5547C154.054 29.5547 157.661 30.4893 160.798 32.1247L163.935 26.4396C160.484 24.1811 156.485 23.1687 152.015 23.1687Z" fill="white"/>
<path fill-rule="evenodd" clip-rule="evenodd" d="M176.09 23.5581H168.64V50.8933H189.578V44.2737H176.09V23.5581Z" fill="white"/>
<path fill-rule="evenodd" clip-rule="evenodd" d="M215.848 23.5581H193.263V50.8933H216.083V44.2737H200.713V40.224H214.828V33.9159H200.713V30.1777H215.848V23.5581Z" fill="white"/>
<path fill-rule="evenodd" clip-rule="evenodd" d="M220.318 50.8933H227.768V42.5604H230.904H232.159L237.491 50.8933H245.961L239.766 41.6258C243.53 40.3019 245.255 37.5762 245.255 33.0592C245.255 26.3617 241.648 23.5581 232.708 23.5581H220.318V50.8933ZM233.022 30.1777C236.237 30.1777 237.491 31.1902 237.491 33.5265C237.491 35.9407 236.237 36.8753 233.022 36.8753H227.689V30.1777H233.022Z" fill="white"/>
</g>
<defs>
<clipPath id="clip0_1586_1164">
<rect width="246" height="69" fill="white"/>
</clipPath>
</defs>
</svg>
