<svg width="70" height="70" viewBox="0 0 70 70" fill="none" xmlns="http://www.w3.org/2000/svg">
<g clip-path="url(#clip0_1854_67)">
<path d="M35.3434 65.9865C52.6128 65.9865 66.6125 52.0117 66.6125 34.773C66.6125 17.5343 52.6128 3.55954 35.3434 3.55954C18.0739 3.55954 4.07422 17.5343 4.07422 34.773C4.07422 52.0117 18.0739 65.9865 35.3434 65.9865Z" fill="white"/>
<path fill-rule="evenodd" clip-rule="evenodd" d="M-0.0131836 35.08C-0.0131836 15.7379 15.6214 0.0799866 35.0369 0.0799866H35.2412C44.5402 0.0799866 53.3283 3.7642 59.8683 10.4162C66.4082 16.966 70.0869 25.8695 69.9847 35.08C69.9847 54.4221 54.3502 70.08 34.9347 70.08C15.5192 70.08 -0.0131836 54.4221 -0.0131836 35.08ZM31.9713 48.5888L35.65 36.3081L41.3725 34.6706L42.5987 30.5771L36.9784 32.3168L42.9053 12.156V11.849C42.9053 11.542 42.8031 11.3373 42.5987 11.1326C42.3943 10.9279 42.1899 10.8256 41.8834 10.8256H34.3216C33.7084 10.8256 33.1975 11.235 33.0953 11.7467L26.0444 35.694L20.4242 37.4338L19.1979 41.3227L24.8182 39.5829L19.811 56.5712H49.6496C50.2627 56.5712 50.7736 56.1619 50.8758 55.6502L52.613 49.8168V49.5098C52.613 49.2028 52.5108 48.9981 52.3064 48.7934C52.1021 48.5888 51.8977 48.4864 51.5911 48.4864H31.9713V48.5888Z" fill="#355E9E"/>
</g>
<defs>
<clipPath id="clip0_1854_67">
<rect width="70" height="70" fill="white"/>
</clipPath>
</defs>
</svg>
