<svg width="70" height="70" viewBox="0 0 70 70" fill="none" xmlns="http://www.w3.org/2000/svg">
<g clip-path="url(#clip0_1854_118)">
<path fill-rule="evenodd" clip-rule="evenodd" d="M34.9058 70.651C15.6591 70.651 -0.160156 54.8325 -0.160156 35.4549C-0.0283295 16.2091 15.6591 0.390608 35.0376 0.654249C54.2843 0.78607 69.8398 16.4727 69.8398 35.9822C69.708 55.0962 54.1525 70.651 34.9058 70.651Z" fill="#E52622"/>
<path fill-rule="evenodd" clip-rule="evenodd" d="M56.6567 25.1729C55.0748 23.5911 53.361 21.8774 51.7791 20.5592L51.6473 20.4274C51.3836 20.1638 51.12 20.0319 50.8563 19.9001L49.6699 19.6365C41.6285 18.1864 15.5268 13.3091 14.9994 13.3091C14.8676 13.3091 14.7358 13.4409 14.604 13.4409L14.4721 13.5727C14.3403 13.7045 14.2085 13.9682 14.0767 14.2318V14.3636V14.8909V15.0228C15.7904 19.9001 20.4043 30.973 24.7546 41.1232C28.3139 49.6916 31.7414 57.7326 32.7961 60.8963C32.9279 61.4236 33.1915 62.2145 33.7188 62.3464H33.8507C34.1143 62.3464 35.4326 60.7645 35.4326 60.7645C35.4326 60.7645 57.4477 34.0049 59.6887 31.1049C59.9524 30.7094 60.216 30.3139 60.4797 29.9185C60.6115 29.2594 60.3479 28.6003 59.8205 28.2048C58.8978 27.4139 57.8431 26.3593 56.6567 25.1729ZM40.9693 31.3685L50.4608 23.4593L55.9976 28.6003L40.9693 31.3685ZM20.9316 17.5273L37.2782 30.8412L47.297 22.4047L20.9316 17.5273ZM38.7283 34.4004L55.4703 31.764L36.3554 54.7008L38.7283 34.4004ZM35.9599 33.4776L18.8224 18.9774L33.4552 54.8326L35.9599 33.4776Z" fill="white"/>
</g>
<defs>
<clipPath id="clip0_1854_118">
<rect width="70" height="70" fill="white"/>
</clipPath>
</defs>
</svg>
