<svg width="95" height="60" viewBox="0 0 95 60" fill="none" xmlns="http://www.w3.org/2000/svg">
<g clip-path="url(#clip0_1587_1285)">
<path d="M26.3379 60C18.4537 60 12.5549 57.321 8.64144 51.9695C4.72798 46.6115 2.76807 39.4655 2.76807 30.5186C2.76807 21.5717 4.72798 14.4193 8.64144 9.06141C12.5549 3.70983 18.4537 1.03086 26.3379 1.03086C34.2221 1.03086 40.1209 3.70983 44.0407 9.06141C47.9542 14.4193 49.9141 21.5654 49.9141 30.5123C49.9141 39.4591 47.9606 46.6052 44.0407 51.9631C40.1273 57.321 34.2221 59.9936 26.3379 59.9936V60ZM17.9383 16.7738C16.1438 20.2545 15.2466 24.8489 15.2466 30.5568C15.2466 36.2647 16.1438 40.8654 17.9383 44.3398C19.7327 47.8206 22.5326 49.5577 26.3379 49.5577C30.1432 49.5577 32.9431 47.8206 34.7375 44.3398C36.532 40.8591 37.4292 36.2647 37.4292 30.5568C37.4292 24.8489 36.532 20.2545 34.7375 16.7738C32.9431 13.293 30.1432 11.5558 26.3379 11.5558C22.5326 11.5558 19.7327 13.293 17.9383 16.7738Z" fill="url(#paint0_linear_1587_1285)"/>
<path d="M57.3338 13.1849V2.33535H92.2431V11.1422L80.5791 24.4353C85.148 25.1989 88.6796 27.1142 91.1804 30.1877C93.6812 33.2612 94.9348 36.8056 94.9348 40.8336C94.9348 46.8151 92.9112 51.5049 88.8578 54.903C84.8043 58.301 79.6309 60 73.3185 60C67.0061 60 60.6236 57.7728 54.1521 53.3121L59.37 43.2008C64.7534 47.006 69.5641 48.9087 73.8085 48.9087C76.3665 48.9087 78.4728 48.2851 80.1273 47.0315C81.7817 45.7843 82.6154 43.9707 82.6154 41.6099C82.6154 39.2491 81.6672 37.3656 79.7646 35.9847C77.8619 34.5975 75.2211 33.9039 71.8549 33.9039C70.0605 33.9039 67.5279 34.4193 64.2698 35.4502V26.0706L75.1957 13.1849H57.3338Z" fill="url(#paint1_linear_1587_1285)"/>
<path d="M23.5698 58.9691C15.6856 58.9691 9.78683 56.2902 5.87337 50.9386C1.95991 45.5807 0 38.4283 0 29.4878C0 20.5472 1.95991 13.3885 5.87337 8.03054C9.78683 2.67897 15.6856 0 23.5698 0C31.454 0 37.3528 2.67897 41.2727 8.03054C45.1861 13.3885 47.146 20.5345 47.146 29.4814C47.146 38.4283 45.1925 45.5743 41.2727 50.9322C37.3592 56.2902 31.454 58.9628 23.5698 58.9628V58.9691ZM15.1702 15.7429C13.3758 19.2237 12.4785 23.818 12.4785 29.5259C12.4785 35.2339 13.3758 39.8346 15.1702 43.3089C16.9647 46.7897 19.7646 48.5269 23.5698 48.5269C27.3751 48.5269 30.175 46.7897 31.9695 43.3089C33.7639 39.8282 34.6611 35.2339 34.6611 29.5259C34.6611 23.818 33.7639 19.2237 31.9695 15.7429C30.175 12.2622 27.3751 10.525 23.5698 10.525C19.7646 10.525 16.9647 12.2622 15.1702 15.7429Z" fill="#017ED5"/>
<path d="M54.5657 12.154V1.30449H89.475V10.1114L77.811 23.4044C82.3799 24.168 85.9116 26.0834 88.4124 29.1569C90.9131 32.2304 92.1667 35.7747 92.1667 39.8027C92.1667 45.7843 90.1432 50.4741 86.0897 53.8721C82.0363 57.2701 76.8629 58.9691 70.5504 58.9691C64.238 58.9691 57.8556 56.742 51.384 52.2813L56.602 42.1699C61.9854 45.9752 66.7961 47.8778 71.0404 47.8778C73.5985 47.8778 75.7047 47.2542 77.3592 46.0006C79.0137 44.7534 79.8473 42.9399 79.8473 40.5791C79.8473 38.2183 78.8991 36.3347 76.9965 34.9539C75.0939 33.5667 72.4531 32.873 69.0869 32.873C67.2924 32.873 64.7598 33.3885 61.5018 34.4193V25.0398L72.4276 12.154H54.5657Z" fill="#017ED5"/>
</g>
<defs>
<linearGradient id="paint0_linear_1587_1285" x1="2.76807" y1="30.5122" x2="49.9077" y2="30.5122" gradientUnits="userSpaceOnUse">
<stop stop-color="#003575"/>
<stop offset="1" stop-color="#007DD4"/>
</linearGradient>
<linearGradient id="paint1_linear_1587_1285" x1="54.1521" y1="31.1677" x2="94.9284" y2="31.1677" gradientUnits="userSpaceOnUse">
<stop stop-color="#003575"/>
<stop offset="1" stop-color="#007DD4"/>
</linearGradient>
<clipPath id="clip0_1587_1285">
<rect width="94.9284" height="60" fill="white"/>
</clipPath>
</defs>
</svg>
