<svg width="70" height="70" viewBox="0 0 70 70" fill="none" xmlns="http://www.w3.org/2000/svg">
<g clip-path="url(#clip0_1854_154)">
<path d="M34.7998 70C54.1298 70 69.7998 54.33 69.7998 35C69.7998 15.67 54.1298 0 34.7998 0C15.4698 0 -0.200195 15.67 -0.200195 35C-0.200195 54.33 15.4698 70 34.7998 70Z" fill="#8EC153"/>
<path fill-rule="evenodd" clip-rule="evenodd" d="M46.1751 23.2361C44.4251 18.8611 40.2445 18.6667 35.1889 19.5417L33.4389 13.4167L29.7445 14.4861L31.4945 20.3194C31.1056 20.4167 30.7167 20.5139 30.3278 20.7083C29.7445 20.9028 29.0639 21.0972 28.3834 21.1944L26.6334 15.0694L22.9389 16.1389L24.6889 22.2639C24.2028 22.3611 23.9112 22.4583 23.5223 22.5555C23.1334 22.6528 22.7445 22.75 22.3556 22.8472L17.3 24.5972L18.3695 28.4861C18.3695 28.4861 21.1889 27.6111 20.9945 27.6111C22.55 27.2222 23.2306 27.8055 23.6195 28.6805L25.5639 35.6805H26.0501L25.5639 35.875L28.4806 45.8889C28.4806 46.2778 28.4806 47.1528 27.4112 47.6389L24.7862 48.5139L25.2723 53.0833L30.1334 51.8194L32.7584 51.1389L34.5084 57.2639L38.2028 56.1944L36.4528 50.0694C37.5223 49.875 38.3973 49.6805 39.5639 49.1944L41.3139 55.3194L45.0084 54.25L43.2584 48.125C49.3834 45.9861 53.3695 43.1667 52.2028 37.0417C51.3278 32.2778 48.5084 30.7222 44.5223 30.9167C46.6612 28.6805 47.5362 26.4444 46.1751 23.2361ZM44.9112 38.0139C46.0778 42 39.9528 43.8472 36.6473 44.8194C36.1612 44.9167 35.7723 45.1111 35.4806 45.2083L33.0501 36.9444C33.4389 36.8472 33.8278 36.75 34.3139 36.5555C37.6195 35.5833 43.5501 33.8333 44.9112 38.0139ZM32.5639 33.0555C35.1889 32.2778 40.8278 30.7222 39.6612 26.9305C38.6889 22.9444 33.2445 24.7917 30.5223 25.5694C30.2306 25.6667 30.0362 25.7639 29.7445 25.7639L31.9806 33.1528C32.1751 33.1528 32.3695 33.1528 32.5639 33.0555Z" fill="white"/>
</g>
<defs>
<clipPath id="clip0_1854_154">
<rect width="70" height="70" fill="white"/>
</clipPath>
</defs>
</svg>
