<svg width="70" height="70" viewBox="0 0 70 70" fill="none" xmlns="http://www.w3.org/2000/svg">
<g clip-path="url(#clip0_1854_149)">
<path d="M68.7526 43.3306C64.0829 62.1068 45.1121 73.4892 26.3359 68.8195C7.55973 64.1498 -3.82272 45.179 0.847003 26.4028C5.51673 7.62663 24.4875 -3.75583 43.2637 0.913897C62.0399 5.58362 73.4223 24.5544 68.7526 43.3306Z" fill="#F3BB30"/>
<path fill-rule="evenodd" clip-rule="evenodd" d="M34.7998 22.025L25.7522 31.0725L20.4988 25.8191L34.7998 11.5181L49.1981 25.9164L43.9447 31.1698L34.7998 22.025ZM16.7046 29.6133L11.4512 34.8667L16.7046 40.1201L21.9581 34.8667L16.7046 29.6133ZM25.7522 38.5636L34.7998 47.6112L43.8474 38.5636L49.1008 43.817L34.7998 58.2153L20.4988 43.9143L25.7522 38.5636ZM52.895 29.6133L47.6416 34.8667L52.895 40.1201L58.1484 34.8667L52.895 29.6133Z" fill="white"/>
<path d="M40.1507 34.8666L34.7999 29.5159L30.8112 33.5046L30.4221 33.8937L29.4492 34.8666L34.7999 40.2173L40.1507 34.8666Z" fill="white"/>
</g>
<defs>
<clipPath id="clip0_1854_149">
<rect width="70" height="70" fill="white"/>
</clipPath>
</defs>
</svg>
