<svg width="70" height="70" viewBox="0 0 70 70" fill="none" xmlns="http://www.w3.org/2000/svg">
<g clip-path="url(#clip0_1854_32)">
<path d="M35.4666 70.56C54.7965 70.56 70.4666 54.89 70.4666 35.56C70.4666 16.23 54.7965 0.559998 35.4666 0.559998C16.1366 0.559998 0.466553 16.23 0.466553 35.56C0.466553 54.89 16.1366 70.56 35.4666 70.56Z" fill="#1D2A4C"/>
<path fill-rule="evenodd" clip-rule="evenodd" d="M0.466553 35.56C0.466553 16.2104 16.0747 0.559998 35.4666 0.559998C54.8584 0.559998 70.4666 16.2104 70.4666 35.56C70.4666 54.9096 54.8584 70.56 35.4666 70.56C16.0747 70.56 0.466553 54.8147 0.466553 35.56ZM64.5071 35.56C64.5071 19.5302 51.5476 6.53561 35.4666 6.53561C19.4801 6.44076 6.42601 19.5302 6.42601 35.56C6.42601 51.5898 19.3855 64.5844 35.4666 64.5844C51.453 64.5844 64.5071 51.5898 64.5071 35.56Z" fill="#2864AE"/>
<path d="M15.6963 26.4543H40.3855C40.3855 26.4543 48.899 26.3595 43.0341 37.457C43.0341 37.457 38.7774 46.0885 28.0882 45.8988L33.8584 31.102C33.953 30.7226 33.953 30.3432 33.7639 30.0587C33.5747 29.7741 33.1963 29.5844 32.8179 29.4895L25.2503 29.3947L15.6963 52.8229C15.6963 52.8229 18.9125 53.1074 20.6152 53.0126L19.6693 55.3839H24.2098C24.4936 55.3839 24.6828 55.1942 24.7774 55.0045L25.6287 52.8229L27.5206 52.6332L26.3855 55.3839H30.7368C31.0206 55.3839 31.399 55.1942 31.4936 54.9096L32.7233 51.7795C32.7233 51.7795 46.0612 49.5031 52.1152 38.6901C52.1152 38.6901 60.2503 26.0749 50.6963 21.5221C48.8044 20.6684 46.8179 20.0993 44.8314 19.9096L45.9666 17.1589C46.0611 16.9692 46.0612 16.7795 45.872 16.6847C45.7774 16.495 45.5882 16.4001 45.399 16.4001H41.2368L40.0071 19.7199H38.3044L39.2503 17.0641C39.3449 16.8744 39.2503 16.6847 39.1557 16.5898C39.0612 16.4001 38.872 16.3053 38.6828 16.3053H34.5206L33.2909 19.6251H20.426C19.7639 19.6251 19.1017 20.0045 18.7233 20.6684L15.6963 26.4543Z" fill="white"/>
</g>
<defs>
<clipPath id="clip0_1854_32">
<rect width="70" height="70" fill="white"/>
</clipPath>
</defs>
</svg>
