<svg width="70" height="70" viewBox="0 0 70 70" fill="none" xmlns="http://www.w3.org/2000/svg">
<g clip-path="url(#clip0_1854_37)">
<path d="M16 52V13H50L62.5 41L50 58L16 52Z" fill="white"/>
<path d="M35.8399 23.065H30.8391V32.9242H38.7068V37.0521H30.8391V46.9105H36.0849C37.4328 46.9105 47.1505 47.0628 47.1355 35.4403C47.1204 23.8179 37.7103 23.065 35.8399 23.065Z" fill="#C2A633"/>
<path d="M35 0C15.6699 0 0 15.6699 0 35C0 54.3302 15.6699 70 35 70C54.3302 70 70 54.3302 70 35C70 15.6699 54.3302 0 35 0ZM36.3752 53.9035H23.6999V37.0524H19.2318V32.9245H23.6996V16.0723H34.5783C37.1518 16.0723 54.1978 15.5379 54.1978 35.3041C54.1978 55.3973 36.3755 53.9035 36.3755 53.9035H36.3752Z" fill="#C2A633"/>
</g>
<defs>
<clipPath id="clip0_1854_37">
<rect width="70" height="70" fill="white"/>
</clipPath>
</defs>
</svg>
