<svg width="70" height="70" viewBox="0 0 70 70" fill="none" xmlns="http://www.w3.org/2000/svg">
<g clip-path="url(#clip0_1854_42)">
<path d="M33.2838 0.133331H36.8932C40.7214 0.352291 44.4402 1.11865 48.0496 2.54189C56.7998 5.93576 64.0186 13.1614 67.5187 21.8103C72.3313 33.4152 70.2531 47.6476 62.1592 57.2818C56.6904 63.9601 48.5965 68.5583 40.0651 69.7625C31.9713 70.9668 23.5492 69.2151 16.5491 64.8359C11.1897 61.5515 6.81461 56.7344 3.97081 51.151C0.361383 44.1442 -0.841762 35.8238 0.798889 28.0507C2.54892 19.5113 7.68962 11.6287 14.7991 6.59264C20.2679 2.76085 26.7212 0.571251 33.2838 0.133331Z" fill="white"/>
<path d="M35.3621 5.2789L21.4713 24.4379L15.6743 52.7932L35.3621 64.8359L55.0499 52.7932L49.1436 24.3284L35.3621 5.2789ZM18.8462 51.4794L23.2213 29.9119L33.1746 60.2378L18.8462 51.4794ZM24.6432 24.9853L35.3621 10.2055L46.081 24.9853L35.3621 57.3913L24.6432 24.9853ZM37.3309 60.2378L47.2842 29.9119L51.6593 51.4794L37.3309 60.2378Z" fill="#020203"/>
</g>
<defs>
<clipPath id="clip0_1854_42">
<rect width="70" height="70" fill="white"/>
</clipPath>
</defs>
</svg>
