<svg width="70" height="70" viewBox="0 0 70 70" fill="none" xmlns="http://www.w3.org/2000/svg">
<g clip-path="url(#clip0_1854_80)">
<path d="M34.8667 69.8666C54.1967 69.8666 69.8667 54.1966 69.8667 34.8666C69.8667 15.5367 54.1967 -0.133362 34.8667 -0.133362C15.5367 -0.133362 -0.133301 15.5367 -0.133301 34.8666C-0.133301 54.1966 15.5367 69.8666 34.8667 69.8666Z" fill="white"/>
<path d="M39.7965 50.7399H28.8528L20.0782 44.2328L16.7261 33.7821L20.0782 23.3314L28.8528 16.923H39.7965L48.5711 23.3314L51.9233 33.7821L48.5711 44.2328L48.4725 44.3314L39.7965 50.7399ZM29.05 49.9511H39.5007L47.9796 43.7399L51.2331 33.7821L47.9796 23.8244L39.5007 17.6131H29.05L20.5711 23.8244L17.3176 33.7821L20.5711 43.7399L29.05 49.9511Z" fill="#2D9AD1"/>
<path d="M53.205 48.9652L48.0782 44.43L43.1486 42.5568L34.374 43.6413L25.4022 42.5568L20.4726 44.43L20.2754 43.6413L25.4022 41.6694H25.5007L34.4726 42.9511L43.4444 41.6694L43.543 41.768L48.7683 43.7399L53.8951 48.4722L53.205 48.9652Z" fill="#2D9AD1"/>
<path d="M39.5007 51.0357L34.2754 43.8385L28.8528 51.0357L24.9092 42.261L25.6979 41.8666L29.1486 49.5568L34.374 42.4582L39.5007 49.5568L42.9514 41.8666L47.6838 32.4019L48.7683 43.9371H47.9796L47.0923 35.1624L43.6416 42.261L39.5007 51.0357Z" fill="#2D9AD1"/>
<path d="M17.2192 33.4863H51.7263V34.2751H17.2192V33.4863Z" fill="#2D9AD1"/>
<path d="M47.5856 35.1623L43.2475 26.6835L39.5011 34.768L34.2757 25.5004L28.9518 34.768L25.2053 26.6835L20.8673 35.2609L19.8813 23.8243L20.6701 23.7257L21.4588 32.6975L25.3039 25.106L29.0504 33.1905L34.3743 24.0215L39.5011 33.1905L43.3461 25.106L47.1912 32.5004L47.7828 23.7257H48.5715L47.5856 35.1623Z" fill="#2D9AD1"/>
<path d="M42.853 25.9934L39.4023 18.2047L34.2756 25.4018L29.0502 18.2047L25.5995 25.9934L25.0079 25.599L28.853 16.6272L34.2756 23.923L39.5009 16.6272L43.5432 25.599L42.853 25.9934ZM47.9798 44.0357L47.0925 35.261L43.2474 42.8526L39.4023 34.6695L34.2756 43.9371L28.9516 34.6695L25.2051 42.8526L21.3601 35.1624L20.5713 43.9371H19.7826L20.7685 32.4018L25.1065 41.0779L28.853 32.9934L34.177 42.261L39.4023 32.9934L43.2474 41.2751L47.5854 32.5004L48.6699 44.0357H47.9798Z" fill="#2D9AD1"/>
<path d="M43.2471 26.2892L34.1767 25.0075L25.2049 26.2892L20.0781 24.0216L20.2753 23.2328L25.2049 25.3033L33.9795 24.2188L43.05 25.3033L47.8809 23.2328L48.2753 24.0216L43.2471 26.2892Z" fill="#2D9AD1"/>
<path d="M28.951 51.8244C29.7678 51.8244 30.4299 51.1623 30.4299 50.3455C30.4299 49.5288 29.7678 48.8666 28.951 48.8666C28.1343 48.8666 27.4722 49.5288 27.4722 50.3455C27.4722 51.1623 28.1343 51.8244 28.951 51.8244Z" fill="#2D9AD1"/>
<path d="M39.4022 51.8244C40.219 51.8244 40.8811 51.1623 40.8811 50.3455C40.8811 49.5288 40.219 48.8666 39.4022 48.8666C38.5855 48.8666 37.9233 49.5288 37.9233 50.3455C37.9233 51.1623 38.5855 51.8244 39.4022 51.8244Z" fill="#2D9AD1"/>
<path d="M28.951 18.9934C29.7678 18.9934 30.4299 18.3313 30.4299 17.5145C30.4299 16.6978 29.7678 16.0356 28.951 16.0356C28.1343 16.0356 27.4722 16.6978 27.4722 17.5145C27.4722 18.3313 28.1343 18.9934 28.951 18.9934Z" fill="#2D9AD1"/>
<path d="M39.4022 18.9934C40.219 18.9934 40.8811 18.3313 40.8811 17.5145C40.8811 16.6978 40.219 16.0356 39.4022 16.0356C38.5855 16.0356 37.9233 16.6978 37.9233 17.5145C37.9233 18.3313 38.5855 18.9934 39.4022 18.9934Z" fill="#2D9AD1"/>
<path d="M48.078 25.1061C48.8948 25.1061 49.5569 24.4439 49.5569 23.6272C49.5569 22.8104 48.8948 22.1483 48.078 22.1483C47.2612 22.1483 46.5991 22.8104 46.5991 23.6272C46.5991 24.4439 47.2612 25.1061 48.078 25.1061Z" fill="#2D9AD1"/>
<path d="M20.2757 25.1061C21.0925 25.1061 21.7546 24.4439 21.7546 23.6272C21.7546 22.8104 21.0925 22.1483 20.2757 22.1483C19.459 22.1483 18.7969 22.8104 18.7969 23.6272C18.7969 24.4439 19.459 25.1061 20.2757 25.1061Z" fill="#2D9AD1"/>
<path d="M20.2757 45.6131C21.0925 45.6131 21.7546 44.951 21.7546 44.1342C21.7546 43.3174 21.0925 42.6553 20.2757 42.6553C19.459 42.6553 18.7969 43.3174 18.7969 44.1342C18.7969 44.951 19.459 45.6131 20.2757 45.6131Z" fill="#2D9AD1"/>
<path d="M17.2191 35.3596C18.0359 35.3596 18.698 34.6975 18.698 33.8807C18.698 33.064 18.0359 32.4019 17.2191 32.4019C16.4023 32.4019 15.7402 33.064 15.7402 33.8807C15.7402 34.6975 16.4023 35.3596 17.2191 35.3596Z" fill="#2D9AD1"/>
<path d="M51.5287 35.3596C52.3454 35.3596 53.0076 34.6975 53.0076 33.8807C53.0076 33.064 52.3454 32.4019 51.5287 32.4019C50.7119 32.4019 50.0498 33.064 50.0498 33.8807C50.0498 34.6975 50.7119 35.3596 51.5287 35.3596Z" fill="#2D9AD1"/>
<path d="M47.2894 35.3596C48.1062 35.3596 48.7683 34.6975 48.7683 33.8807C48.7683 33.064 48.1062 32.4019 47.2894 32.4019C46.4727 32.4019 45.8105 33.064 45.8105 33.8807C45.8105 34.6975 46.4727 35.3596 47.2894 35.3596Z" fill="#2D9AD1"/>
<path d="M21.163 35.3596C21.9797 35.3596 22.6418 34.6975 22.6418 33.8807C22.6418 33.064 21.9797 32.4019 21.163 32.4019C20.3462 32.4019 19.6841 33.064 19.6841 33.8807C19.6841 34.6975 20.3462 35.3596 21.163 35.3596Z" fill="#2D9AD1"/>
<path d="M28.951 35.3596C29.7678 35.3596 30.4299 34.6975 30.4299 33.8807C30.4299 33.064 29.7678 32.4019 28.951 32.4019C28.1343 32.4019 27.4722 33.064 27.4722 33.8807C27.4722 34.6975 28.1343 35.3596 28.951 35.3596Z" fill="#2D9AD1"/>
<path d="M39.4022 35.3596C40.219 35.3596 40.8811 34.6975 40.8811 33.8807C40.8811 33.064 40.219 32.4019 39.4022 32.4019C38.5855 32.4019 37.9233 33.064 37.9233 33.8807C37.9233 34.6975 38.5855 35.3596 39.4022 35.3596Z" fill="#2D9AD1"/>
<path d="M34.2753 26.092C35.092 26.092 35.7541 25.4299 35.7541 24.6132C35.7541 23.7964 35.092 23.1343 34.2753 23.1343C33.4585 23.1343 32.7964 23.7964 32.7964 24.6132C32.7964 25.4299 33.4585 26.092 34.2753 26.092Z" fill="#2D9AD1"/>
<path d="M25.2049 27.3737C26.0217 27.3737 26.6838 26.7116 26.6838 25.8948C26.6838 25.0781 26.0217 24.416 25.2049 24.416C24.3882 24.416 23.7261 25.0781 23.7261 25.8948C23.7261 26.7116 24.3882 27.3737 25.2049 27.3737Z" fill="#2D9AD1"/>
<path d="M43.2474 27.3737C44.0642 27.3737 44.7263 26.7116 44.7263 25.8948C44.7263 25.0781 44.0642 24.416 43.2474 24.416C42.4307 24.416 41.7686 25.0781 41.7686 25.8948C41.7686 26.7116 42.4307 27.3737 43.2474 27.3737Z" fill="#2D9AD1"/>
<path d="M34.2753 44.7257C35.092 44.7257 35.7541 44.0636 35.7541 43.2469C35.7541 42.4301 35.092 41.768 34.2753 41.768C33.4585 41.768 32.7964 42.4301 32.7964 43.2469C32.7964 44.0636 33.4585 44.7257 34.2753 44.7257Z" fill="#2D9AD1"/>
<path d="M25.2049 43.5426C26.0217 43.5426 26.6838 42.8805 26.6838 42.0638C26.6838 41.247 26.0217 40.5849 25.2049 40.5849C24.3882 40.5849 23.7261 41.247 23.7261 42.0638C23.7261 42.8805 24.3882 43.5426 25.2049 43.5426Z" fill="#2D9AD1"/>
<path d="M43.2474 43.5426C44.0642 43.5426 44.7263 42.8805 44.7263 42.0638C44.7263 41.247 44.0642 40.5849 43.2474 40.5849C42.4307 40.5849 41.7686 41.247 41.7686 42.0638C41.7686 42.8805 42.4307 43.5426 43.2474 43.5426Z" fill="#2D9AD1"/>
<path d="M53.402 50.7399C54.491 50.7399 55.3738 49.857 55.3738 48.768C55.3738 47.679 54.491 46.7962 53.402 46.7962C52.313 46.7962 51.4302 47.679 51.4302 48.768C51.4302 49.857 52.313 50.7399 53.402 50.7399Z" fill="#2D9AD1"/>
</g>
<defs>
<clipPath id="clip0_1854_80">
<rect width="70" height="70" fill="white"/>
</clipPath>
</defs>
</svg>
