<svg width="70" height="70" viewBox="0 0 70 70" fill="none" xmlns="http://www.w3.org/2000/svg">
<g clip-path="url(#clip0_1854_170)">
<path d="M35 70C54.33 70 70 54.33 70 35C70 15.67 54.33 0 35 0C15.67 0 0 15.67 0 35C0 54.33 15.67 70 35 70Z" fill="url(#paint0_linear_1854_170)"/>
<path d="M18.6524 45.0589C18.9486 44.7626 19.3506 44.5965 19.7696 44.5965H58.4274C59.1317 44.5965 59.4842 45.448 58.9857 45.9459L51.347 53.5785C51.0507 53.8747 50.6488 54.0409 50.2297 54.0409H11.5726C10.8683 54.0409 10.5158 53.1894 11.0143 52.6915L18.653 45.0589H18.6524Z" fill="white"/>
<path d="M18.6524 16.5437C18.9486 16.2474 19.3506 16.0813 19.7696 16.0813H58.4274C59.1317 16.0813 59.4842 16.9328 58.9857 17.4307L51.347 25.0633C51.0507 25.3595 50.6488 25.5257 50.2297 25.5257H11.5726C10.8683 25.5257 10.5158 24.6742 11.0143 24.1763L18.653 16.5437H18.6524Z" fill="white"/>
<path d="M51.3476 30.7106C51.0513 30.4143 50.6494 30.2482 50.2304 30.2482H11.5726C10.8683 30.2482 10.5158 31.0997 11.0143 31.5975L18.653 39.2301C18.9492 39.5264 19.3512 39.6926 19.7702 39.6926H58.4274C59.1317 39.6926 59.4842 38.841 58.9857 38.3432L51.347 30.7106H51.3476Z" fill="white"/>
</g>
<defs>
<linearGradient id="paint0_linear_1854_170" x1="10.2513" y1="59.7487" x2="59.7487" y2="10.2513" gradientUnits="userSpaceOnUse">
<stop offset="0.04" stop-color="#EF549E"/>
<stop offset="0.18" stop-color="#C04797"/>
<stop offset="0.44" stop-color="#5E2C8A"/>
<stop offset="0.59" stop-color="#405794"/>
<stop offset="0.78" stop-color="#1D8AA1"/>
<stop offset="0.92" stop-color="#08AAA9"/>
<stop offset="1" stop-color="#00B7AD"/>
</linearGradient>
<clipPath id="clip0_1854_170">
<rect width="70" height="70" fill="white"/>
</clipPath>
</defs>
</svg>
