<svg width="70" height="70" viewBox="0 0 70 70" fill="none" xmlns="http://www.w3.org/2000/svg">
<g clip-path="url(#clip0_1854_27)">
<path d="M0 34.8579C0 14.8715 14.7766 0 34.763 0C54.5599 0 70.0943 15.2503 69.9996 34.5737C69.9996 53.9919 54.2757 70 35.2366 70C15.0608 70 0.094722 55.0338 0 34.8579ZM49.4449 27.0907C48.2135 31.3532 47.0768 34.479 46.2243 37.7943C45.3718 41.4885 43.1932 42.5304 39.4991 42.4357C32.3002 42.2463 25.1013 42.5304 17.9025 42.341C13.1664 42.2463 11.4614 44.4249 11.8403 49.4452C23.5858 49.4452 35.2366 49.9188 46.7927 49.0663C49.6343 48.8769 53.139 44.9932 54.7493 42.0568C57.1174 37.7943 58.254 32.774 59.6749 28.0379C61.0957 23.207 59.1065 20.2706 53.9915 20.1759C44.0457 19.9865 34.0999 20.1759 24.0594 20.0812C20.7441 20.0812 19.0391 21.7862 19.2286 24.6279C19.3233 25.5751 22.1649 26.9012 23.7752 26.9012C32.016 27.1854 40.2569 27.0907 49.4449 27.0907ZM28.7955 31.6374C24.1541 31.6374 19.8916 31.7321 15.7239 31.6374C11.3666 31.4479 10.0405 33.6265 10.23 37.5102C22.4491 40.0677 27.943 38.6468 28.7955 31.6374Z" fill="#2E70B7"/>
<path d="M49.4452 27.0906C40.2571 27.0906 32.0163 27.1853 23.8702 26.9959C22.26 26.9959 19.4183 25.5751 19.3236 24.7226C19.1341 21.8809 20.8391 20.0811 24.1544 20.1759C34.1002 20.2706 44.046 20.0811 54.0865 20.2706C59.2015 20.3653 61.2854 23.3017 59.7699 28.1326C58.349 32.8687 57.2124 37.889 54.8443 42.1515C53.1393 45.1826 49.7293 48.9715 46.8877 49.161C35.3316 49.9188 23.6808 49.4452 11.9353 49.4452C11.5564 44.4249 13.2614 42.2462 17.9975 42.341C25.1963 42.5304 32.3952 42.2462 39.5941 42.4357C43.1935 42.5304 45.4668 41.4885 46.3193 37.7943C46.9824 34.479 48.1191 31.2584 49.4452 27.0906Z" fill="white"/>
<path d="M28.7957 31.6374C27.9432 38.5521 22.3546 39.973 10.2302 37.4154C9.94598 33.5318 11.3668 31.4479 15.724 31.5426C19.9865 31.8268 24.249 31.6374 28.7957 31.6374Z" fill="white"/>
</g>
<defs>
<clipPath id="clip0_1854_27">
<rect width="70" height="70" fill="white"/>
</clipPath>
</defs>
</svg>
