<svg width="70" height="70" viewBox="0 0 70 70" fill="none" xmlns="http://www.w3.org/2000/svg">
<g clip-path="url(#clip0_1854_178)">
<path d="M35 70C54.33 70 70 54.33 70 35C70 15.67 54.33 0 35 0C15.67 0 0 15.67 0 35C0 54.33 15.67 70 35 70Z" fill="#2775CA"/>
<path d="M37.28 51.33C37.28 50.55 37.28 49.77 37.28 48.99C37.28 48.1 37.28 48.11 38.12 47.9C40.4 47.33 42.3 46.21 43.58 44.18C44.56 42.64 44.83 40.95 44.65 39.15C44.45 37.06 43.59 35.39 41.76 34.29C39.9 33.17 37.8 32.84 35.71 32.47C34.49 32.25 33.27 31.98 32.09 31.6C30.73 31.15 30.21 30.07 30.26 28.67C30.31 27.37 30.99 26.28 32.3 25.91C33.22 25.65 34.21 25.59 35.17 25.58C37.34 25.55 38.75 26.75 39.21 28.46C39.37 29.04 39.8 29.34 40.44 29.33C41.2 29.31 41.96 29.33 42.72 29.33C43.46 29.31 43.97 28.7 43.77 27.98C43.55 27.22 43.3 26.44 42.93 25.75C41.83 23.71 40 22.63 37.8 22.13C37.39 22.04 37.26 21.85 37.27 21.46C37.29 20.51 37.29 19.55 37.27 18.6C37.26 17.89 36.8 17.44 36.1 17.42C35.4 17.41 34.7 17.42 34 17.42C33.18 17.42 32.74 17.86 32.73 18.68C32.73 19.56 32.71 20.43 32.73 21.31C32.74 21.75 32.59 21.92 32.15 22C30.75 22.26 29.46 22.78 28.33 23.65C25.98 25.45 25.28 27.87 25.67 30.7C25.99 33.02 27.31 34.62 29.43 35.44C30.9 36.01 32.49 36.3 34.03 36.69C35.36 37.03 36.72 37.27 38.04 37.67C38.93 37.94 39.56 38.59 39.81 39.54C40.29 41.43 39.45 43.15 37.68 43.97C36.63 44.46 35.53 44.47 34.42 44.43C31.89 44.34 30.17 43.12 29.75 40.78C29.63 40.13 29.19 39.77 28.57 39.75C27.71 39.73 26.85 39.72 26 39.75C25.33 39.77 24.84 40.33 24.94 40.96C25.2 42.59 25.8 44.07 26.92 45.31C28.35 46.89 30.2 47.64 32.23 48C32.65 48.08 32.73 48.25 32.72 48.61C32.72 48.67 32.72 48.73 32.72 48.79C32.72 49.2 32.72 49.61 32.72 50.02C32.72 50.45 32.72 50.88 32.72 51.31C32.72 52.13 33.08 52.59 33.87 52.65C34.62 52.71 35.39 52.71 36.15 52.65C36.91 52.59 37.27 52.13 37.28 51.35V51.33Z" fill="white"/>
<path d="M28.5101 57.57C28.5101 56.12 28.3001 55.82 26.9401 55.27C25.2401 54.58 23.6101 53.74 22.1501 52.62C15.2101 47.25 12.2401 40.17 13.4801 31.5C14.2701 25.99 17.0401 21.47 21.3801 17.95C23.1701 16.51 25.1401 15.39 27.2901 14.58C27.9901 14.31 28.4501 13.85 28.4901 13.09C28.5301 12.33 28.5201 11.57 28.4901 10.81C28.4701 10.17 28.0301 9.77999 27.3901 9.79999C27.1001 9.79999 26.8101 9.86999 26.5401 9.95999C22.2001 11.45 18.4601 13.85 15.3801 17.27C11.0601 22.08 8.83007 27.74 8.54007 34.17C8.43007 36.57 8.72007 38.95 9.30007 41.28C10.6801 46.79 13.5201 51.42 17.8401 55.11C20.4701 57.36 23.4501 59.03 26.7501 60.09C27.8901 60.46 28.5001 60.01 28.5001 58.8C28.5001 58.53 28.5001 58.25 28.5001 57.98C28.5001 57.84 28.5001 57.71 28.5001 57.57H28.5101Z" fill="white"/>
<path d="M42.8302 14.63C45.5002 15.65 47.9102 17.11 49.9502 19.11C55.4902 24.55 57.8201 31.15 56.4401 38.82C55.0601 46.53 50.5701 51.94 43.4101 55.12C42.9601 55.32 42.6202 55.47 42.3602 55.61C42.3202 55.63 42.2901 55.65 42.2601 55.67C42.0201 55.81 41.8502 55.94 41.7402 56.1C41.7202 56.12 41.7102 56.14 41.7002 56.17C41.7002 56.18 41.6902 56.19 41.6802 56.21C41.6702 56.23 41.6602 56.26 41.6502 56.28C41.6302 56.32 41.6202 56.36 41.6102 56.4C41.6102 56.43 41.5902 56.46 41.5902 56.49C41.5902 56.51 41.5902 56.52 41.5802 56.54C41.5802 56.57 41.5702 56.6 41.5602 56.64C41.5602 56.67 41.5501 56.71 41.5501 56.74C41.5101 57.05 41.5101 57.45 41.5101 58C41.5101 58.09 41.5101 58.18 41.5101 58.26C41.5101 58.29 41.5101 58.32 41.5101 58.35C41.5101 58.41 41.5101 58.47 41.5101 58.53C41.5101 58.59 41.5101 58.65 41.5001 58.7C41.3401 59.89 42.1601 60.5 43.3701 60.09C53.7901 56.6 61.0302 47.11 61.4702 35.87C61.5902 32.75 61.1301 29.7 60.1402 26.74C58.2101 21.01 54.7401 16.44 49.7301 13.05C47.7201 11.69 45.5502 10.65 43.2402 9.89999C42.1602 9.54999 41.5201 10.02 41.5101 11.13C41.5101 11.66 41.5101 12.18 41.5101 12.71C41.5101 13.82 41.8102 14.25 42.8401 14.64L42.8302 14.63Z" fill="white"/>
</g>
<defs>
<clipPath id="clip0_1854_178">
<rect width="70" height="70" fill="white"/>
</clipPath>
</defs>
</svg>
