<svg width="70" height="70" viewBox="0 0 70 70" fill="none" xmlns="http://www.w3.org/2000/svg">
<g clip-path="url(#clip0_1854_76)">
<path d="M68.8139 43.4175C64.1381 62.1751 45.1298 73.5928 26.4264 68.9034C7.62144 64.214 -3.76322 45.2525 0.912624 26.4948C5.58846 7.73721 24.5968 -3.68049 43.3001 1.00892C62.1051 5.69833 73.4898 24.6599 68.8139 43.4175Z" fill="#52AF95"/>
<path fill-rule="evenodd" clip-rule="evenodd" d="M39.336 38.932C39.1327 38.932 37.8112 39.0339 34.9651 39.0339C32.7288 39.0339 31.1024 38.932 30.4925 38.932C21.7507 38.5242 15.1436 36.995 15.1436 35.16C15.1436 33.325 21.6491 31.7959 30.4925 31.3881V37.4028C31.1024 37.4028 32.7288 37.5047 34.9651 37.5047C37.7096 37.5047 39.031 37.4028 39.336 37.4028V31.3881C48.0777 31.7959 54.5833 33.325 54.5833 35.16C54.5833 36.995 48.0777 38.5242 39.336 38.932ZM39.336 30.7765V25.4754H51.5338V17.3199H18.2947V25.4754H30.4925V30.7765C20.5309 31.1842 13.1106 33.2231 13.1106 35.5678C13.1106 37.9125 20.5309 39.8494 30.4925 40.3592V57.4857H39.336V40.3592C49.1959 39.9514 56.7179 37.9125 56.7179 35.5678C56.6162 33.2231 49.1959 31.2862 39.336 30.7765Z" fill="white"/>
</g>
<defs>
<clipPath id="clip0_1854_76">
<rect width="70" height="70" fill="white"/>
</clipPath>
</defs>
</svg>
