<svg width="70" height="70" viewBox="0 0 70 70" fill="none" xmlns="http://www.w3.org/2000/svg">
<g clip-path="url(#clip0_1854_112)">
<path d="M34.6665 69.92C53.9965 69.92 69.6665 54.25 69.6665 34.92C69.6665 15.5901 53.9965 -0.0799561 34.6665 -0.0799561C15.3365 -0.0799561 -0.333496 15.5901 -0.333496 34.92C-0.333496 54.25 15.3365 69.92 34.6665 69.92Z" fill="white"/>
<path d="M33.7992 57.6754C33.6908 57.6754 33.6908 57.6754 33.5824 57.6754C32.3905 57.6754 31.3069 57.5671 30.2233 57.3504C27.2976 56.8086 24.4803 55.725 21.988 54.0996C21.6629 53.8829 21.4462 53.7745 21.1211 53.5578C21.1211 53.5578 21.0128 53.4494 20.9044 53.4494L25.1304 51.2822C28.7063 53.3411 32.8239 53.9912 36.9416 53.4494C40.3007 52.9076 43.3348 51.499 45.9354 49.3318C50.7032 45.3225 53.0871 39.146 52.2202 32.9696L7.79297 55.6166C7.79297 55.6166 7.79297 55.5082 7.79297 55.3999C7.79297 53.9912 7.79297 52.5826 7.79297 51.1739C7.79297 51.0655 7.90133 50.9572 8.00969 50.9572L12.1273 48.8983L24.9137 42.3968C29.0314 40.2296 33.2574 38.1708 37.375 36.0036L50.1614 29.5021L60.5639 24.1925C60.5639 24.1925 60.6722 24.1925 60.6722 24.0841V28.6352C60.5639 28.6352 60.4555 28.7435 60.4555 28.7435C59.9137 29.0686 59.2636 29.2853 58.7218 29.6104C57.4215 30.2606 56.5546 31.5609 56.5546 32.9696C56.5546 33.2946 56.5546 33.7281 56.5546 34.0531C56.6629 36.112 56.4462 38.1708 56.0128 40.1213C53.7372 50.0903 44.9602 57.242 34.7744 57.4587C34.666 57.4587 34.666 57.4587 34.5577 57.4587L33.7992 57.6754Z" fill="#020203"/>
<path d="M60.5641 19.533C60.1307 19.7497 59.5889 20.0748 59.1555 20.2915L45.7189 27.1182C41.2762 29.3937 36.8335 31.6692 32.3908 33.9448L19.9295 40.338L17.1121 41.7466L13.5363 43.5887L7.9016 46.4061C7.79324 46.4061 7.79324 46.5144 7.68488 46.5144C7.68488 46.2977 7.57652 42.2884 7.68488 41.9634L8.66011 41.4216L9.52698 40.9881C11.044 40.2296 11.9109 38.6042 11.6942 36.9788C11.5858 35.8952 11.5858 34.7033 11.6942 33.6197C12.3443 24.8426 18.1957 17.2575 26.6477 14.3318C28.1648 13.79 29.7901 13.4649 31.4155 13.2482C31.9573 13.1398 32.4991 13.1398 33.1493 13.1398C33.2576 13.1398 33.2576 13.1398 33.366 13.1398H34.883C34.9914 13.1398 34.9914 13.1398 35.0997 13.1398C36.1833 13.1398 37.1586 13.3566 38.2422 13.4649C41.3846 14.0067 44.4186 15.307 47.1276 17.2575C47.1276 17.2575 47.236 17.3658 47.3443 17.3658L47.1276 17.4742C45.8273 18.1244 44.6353 18.7745 43.335 19.4247C43.2267 19.533 43.1183 19.533 42.9016 19.4247C40.0843 17.9076 36.9418 17.1491 33.7994 17.2575C32.6075 17.2575 31.3072 17.4742 30.1152 17.6909C22.0966 19.3163 16.2453 26.2513 15.9202 34.3782C15.9202 35.3535 15.9202 36.2203 16.0285 37.1956C16.0285 37.3039 16.0285 37.5206 16.1369 37.7374C16.2453 37.7374 16.2453 37.629 16.3536 37.629L21.0131 35.2451L33.4744 28.8519L44.7437 23.1089L57.205 16.7157L60.5641 14.9819V19.533Z" fill="#020203"/>
</g>
<defs>
<clipPath id="clip0_1854_112">
<rect width="70" height="70" fill="white"/>
</clipPath>
</defs>
</svg>
