<svg width="70" height="70" viewBox="0 0 70 70" fill="none" xmlns="http://www.w3.org/2000/svg">
<g clip-path="url(#clip0_1854_122)">
<path d="M68.78 42.3598C64.0752 61.1269 45.1441 72.5895 26.325 67.8696C7.61789 63.2621 -3.80799 44.2702 0.896787 25.503C5.60156 6.73589 24.5327 -4.72668 43.3518 -0.0067966C62.0589 4.60071 73.4847 23.5926 68.78 42.3598Z" fill="#23292F"/>
<path d="M52.0891 13.4786H59.1463L44.4719 28.0878C39.095 33.3695 30.4696 33.3695 25.2047 28.0878L10.5303 13.4786H17.4754L28.6773 24.4917C32.0378 27.863 37.5267 27.863 40.8873 24.4917L52.0891 13.4786Z" fill="white"/>
<path d="M17.3633 54.0471H10.3062L25.0926 39.438C30.4695 34.1562 39.0949 34.1562 44.3598 39.438L59.1462 54.0471H52.2011L40.8872 42.9217C37.5266 39.5503 32.0377 39.5503 28.6772 42.9217L17.3633 54.0471Z" fill="white"/>
</g>
<defs>
<clipPath id="clip0_1854_122">
<rect width="70" height="70" fill="white"/>
</clipPath>
</defs>
</svg>
