<svg width="70" height="70" viewBox="0 0 70 70" fill="none" xmlns="http://www.w3.org/2000/svg">
<path d="M35.3498 64.2833C19.3665 64.2833 6.4165 51.3333 6.4165 35.35C6.4165 19.3667 19.4832 6.41666 35.3498 6.41666C51.3332 6.41666 64.2832 19.4833 64.2832 35.35C64.2832 51.3333 51.3332 64.2833 35.3498 64.2833Z" fill="url(#paint0_linear_1854_129)"/>
<path d="M35 70C15.75 70 0 54.25 0 35C0 15.75 15.75 0 35 0C54.25 0 70 15.75 70 35C70 54.25 54.25 70 35 70ZM35 7.81667C20.0667 7.81667 7.81667 20.0667 7.81667 35C7.81667 49.9333 20.0667 62.1833 35 62.1833C49.9333 62.1833 62.1833 49.9333 62.1833 35C62.1833 20.0667 49.9333 7.81667 35 7.81667Z" fill="#020203"/>
<path d="M34.1836 44.45H49.3503V52.0333H40.3669V58.45H32.5503V52.2666H23.2169C23.2169 49.7 22.8669 47.25 23.4503 44.9166C23.6836 43.75 24.9669 42.5833 26.0169 41.4166C28.9336 37.9166 31.8503 34.4166 35.0003 30.9166C36.1669 29.5166 37.3336 28.35 38.7336 26.8333H24.0336V19.25H32.5503V12.8333H40.2503V19.0166H49.5836C49.5836 21.5833 49.9336 24.0333 49.3503 26.3666C49.1169 27.5333 47.8336 28.7 46.7836 29.8666C43.8669 33.3666 40.9503 36.8666 37.8003 40.3666C36.7503 41.7666 35.5836 43.1666 34.1836 44.45Z" fill="#020203"/>
<defs>
<linearGradient id="paint0_linear_1854_129" x1="15.4882" y1="55.2492" x2="55.4775" y2="15.2599" gradientUnits="userSpaceOnUse">
<stop stop-color="#CF8726"/>
<stop offset="1" stop-color="#FECF5B"/>
</linearGradient>
</defs>
</svg>
